<svg xmlns="http://www.w3.org/2000/svg" version="1.1" xmlns:xlink="http://www.w3.org/1999/xlink" xmlns:svgjs="http://svgjs.com/svgjs" width="1440" height="560" preserveAspectRatio="none" viewBox="0 0 1440 560"><g mask="url(&quot;#SvgjsMask1034&quot;)" fill="none"><rect width="1440" height="560" x="0" y="0" fill="rgba(210, 95, 95, 1)"></rect><path d="M-46.89 360.4L-46.89 360.4" stroke="rgba(161, 161, 161, 1)" stroke-width="1.5"></path><path d="M-46.89 360.4L91.61 376.06" stroke="rgba(161, 161, 161, 1)" stroke-width="1.5"></path><path d="M-46.89 360.4L-44.02 552.1" stroke="rgba(161, 161, 161, 1)" stroke-width="1.5"></path><path d="M-44.02 552.1L-44.02 552.1" stroke="rgba(161, 161, 161, 1)" stroke-width="1.5"></path><path d="M-44.02 552.1L81.2 557.5" stroke="rgba(161, 161, 161, 1)" stroke-width="1.5"></path><path d="M-44.02 552.1L-105.48 704.87" stroke="rgba(161, 161, 161, 1)" stroke-width="1.5"></path><path d="M-44.02 552.1L107.16 664.77" stroke="rgba(161, 161, 161, 1)" stroke-width="1.5"></path><path d="M-44.02 552.1L91.61 376.06" stroke="rgba(161, 161, 161, 1)" stroke-width="1.5"></path><path d="M-44.02 552.1L223.6 532.32" stroke="rgba(161, 161, 161, 1)" stroke-width="1.5"></path><path d="M-105.48 704.87L-105.48 704.87" stroke="rgba(161, 161, 161, 1)" stroke-width="1.5"></path><path d="M-105.48 704.87L107.16 664.77" stroke="rgba(161, 161, 161, 1)" stroke-width="1.5"></path><path d="M-105.48 704.87L81.2 557.5" stroke="rgba(161, 161, 161, 1)" stroke-width="1.5"></path><path d="M91.61 376.06L91.61 376.06" stroke="rgba(161, 161, 161, 1)" stroke-width="1.5"></path><path d="M91.61 376.06L243.62 409.12" stroke="rgba(161, 161, 161, 1)" stroke-width="1.5"></path><path d="M91.61 376.06L81.2 557.5" stroke="rgba(161, 161, 161, 1)" stroke-width="1.5"></path><path d="M91.61 376.06L223.6 532.32" stroke="rgba(161, 161, 161, 1)" stroke-width="1.5"></path><path d="M91.61 376.06L349.28 369.35" stroke="rgba(161, 161, 161, 1)" stroke-width="1.5"></path><path d="M81.2 557.5L81.2 557.5" stroke="rgba(161, 161, 161, 1)" stroke-width="1.5"></path><path d="M81.2 557.5L107.16 664.77" stroke="rgba(161, 161, 161, 1)" stroke-width="1.5"></path><path d="M81.2 557.5L223.6 532.32" stroke="rgba(161, 161, 161, 1)" stroke-width="1.5"></path><path d="M107.16 664.77L107.16 664.77" stroke="rgba(161, 161, 161, 1)" stroke-width="1.5"></path><path d="M107.16 664.77L233.47 669.04" stroke="rgba(161, 161, 161, 1)" stroke-width="1.5"></path><path d="M243.62 409.12L243.62 409.12" stroke="rgba(161, 161, 161, 1)" stroke-width="1.5"></path><path d="M243.62 409.12L349.28 369.35" stroke="rgba(161, 161, 161, 1)" stroke-width="1.5"></path><path d="M243.62 409.12L223.6 532.32" stroke="rgba(161, 161, 161, 1)" stroke-width="1.5"></path><path d="M243.62 409.12L343.66 532.81" stroke="rgba(161, 161, 161, 1)" stroke-width="1.5"></path><path d="M243.62 409.12L81.2 557.5" stroke="rgba(161, 161, 161, 1)" stroke-width="1.5"></path><path d="M243.62 409.12L233.47 669.04" stroke="rgba(161, 161, 161, 1)" stroke-width="1.5"></path><path d="M223.6 532.32L223.6 532.32" stroke="rgba(161, 161, 161, 1)" stroke-width="1.5"></path><path d="M223.6 532.32L343.66 532.81" stroke="rgba(161, 161, 161, 1)" stroke-width="1.5"></path><path d="M223.6 532.32L233.47 669.04" stroke="rgba(161, 161, 161, 1)" stroke-width="1.5"></path><path d="M233.47 669.04L233.47 669.04" stroke="rgba(161, 161, 161, 1)" stroke-width="1.5"></path><path d="M233.47 669.04L347.66 703.95" stroke="rgba(161, 161, 161, 1)" stroke-width="1.5"></path><path d="M233.47 669.04L343.66 532.81" stroke="rgba(161, 161, 161, 1)" stroke-width="1.5"></path><path d="M233.47 669.04L81.2 557.5" stroke="rgba(161, 161, 161, 1)" stroke-width="1.5"></path><path d="M349.28 369.35L349.28 369.35" stroke="rgba(161, 161, 161, 1)" stroke-width="1.5"></path><path d="M349.28 369.35L343.66 532.81" stroke="rgba(161, 161, 161, 1)" stroke-width="1.5"></path><path d="M349.28 369.35L533.9 358.78" stroke="rgba(161, 161, 161, 1)" stroke-width="1.5"></path><path d="M349.28 369.35L223.6 532.32" stroke="rgba(161, 161, 161, 1)" stroke-width="1.5"></path><path d="M343.66 532.81L343.66 532.81" stroke="rgba(161, 161, 161, 1)" stroke-width="1.5"></path><path d="M343.66 532.81L347.66 703.95" stroke="rgba(161, 161, 161, 1)" stroke-width="1.5"></path><path d="M343.66 532.81L497.54 648.7" stroke="rgba(161, 161, 161, 1)" stroke-width="1.5"></path><path d="M347.66 703.95L347.66 703.95" stroke="rgba(161, 161, 161, 1)" stroke-width="1.5"></path><path d="M347.66 703.95L497.54 648.7" stroke="rgba(161, 161, 161, 1)" stroke-width="1.5"></path><path d="M347.66 703.95L223.6 532.32" stroke="rgba(161, 161, 161, 1)" stroke-width="1.5"></path><path d="M347.66 703.95L107.16 664.77" stroke="rgba(161, 161, 161, 1)" stroke-width="1.5"></path><path d="M347.66 703.95L541.22 530.7" stroke="rgba(161, 161, 161, 1)" stroke-width="1.5"></path><path d="M533.9 358.78L533.9 358.78" stroke="rgba(161, 161, 161, 1)" stroke-width="1.5"></path><path d="M533.9 358.78L680.66 397.22" stroke="rgba(161, 161, 161, 1)" stroke-width="1.5"></path><path d="M533.9 358.78L541.22 530.7" stroke="rgba(161, 161, 161, 1)" stroke-width="1.5"></path><path d="M533.9 358.78L688.99 252.84" stroke="rgba(161, 161, 161, 1)" stroke-width="1.5"></path><path d="M533.9 358.78L684.3 494.09" stroke="rgba(161, 161, 161, 1)" stroke-width="1.5"></path><path d="M533.9 358.78L343.66 532.81" stroke="rgba(161, 161, 161, 1)" stroke-width="1.5"></path><path d="M541.22 530.7L541.22 530.7" stroke="rgba(161, 161, 161, 1)" stroke-width="1.5"></path><path d="M541.22 530.7L497.54 648.7" stroke="rgba(161, 161, 161, 1)" stroke-width="1.5"></path><path d="M541.22 530.7L684.3 494.09" stroke="rgba(161, 161, 161, 1)" stroke-width="1.5"></path><path d="M541.22 530.7L648.53 672.7" stroke="rgba(161, 161, 161, 1)" stroke-width="1.5"></path><path d="M497.54 648.7L497.54 648.7" stroke="rgba(161, 161, 161, 1)" stroke-width="1.5"></path><path d="M497.54 648.7L648.53 672.7" stroke="rgba(161, 161, 161, 1)" stroke-width="1.5"></path><path d="M688.99 252.84L688.99 252.84" stroke="rgba(161, 161, 161, 1)" stroke-width="1.5"></path><path d="M688.99 252.84L788.95 244.74" stroke="rgba(161, 161, 161, 1)" stroke-width="1.5"></path><path d="M688.99 252.84L680.66 397.22" stroke="rgba(161, 161, 161, 1)" stroke-width="1.5"></path><path d="M688.99 252.84L836.25 412.08" stroke="rgba(161, 161, 161, 1)" stroke-width="1.5"></path><path d="M688.99 252.84L684.3 494.09" stroke="rgba(161, 161, 161, 1)" stroke-width="1.5"></path><path d="M688.99 252.84L940.33 221.45" stroke="rgba(161, 161, 161, 1)" stroke-width="1.5"></path><path d="M680.66 397.22L680.66 397.22" stroke="rgba(161, 161, 161, 1)" stroke-width="1.5"></path><path d="M680.66 397.22L684.3 494.09" stroke="rgba(161, 161, 161, 1)" stroke-width="1.5"></path><path d="M684.3 494.09L684.3 494.09" stroke="rgba(161, 161, 161, 1)" stroke-width="1.5"></path><path d="M684.3 494.09L839.28 539.16" stroke="rgba(161, 161, 161, 1)" stroke-width="1.5"></path><path d="M648.53 672.7L648.53 672.7" stroke="rgba(161, 161, 161, 1)" stroke-width="1.5"></path><path d="M648.53 672.7L817.66 671.71" stroke="rgba(161, 161, 161, 1)" stroke-width="1.5"></path><path d="M648.53 672.7L684.3 494.09" stroke="rgba(161, 161, 161, 1)" stroke-width="1.5"></path><path d="M648.53 672.7L839.28 539.16" stroke="rgba(161, 161, 161, 1)" stroke-width="1.5"></path><path d="M648.53 672.7L680.66 397.22" stroke="rgba(161, 161, 161, 1)" stroke-width="1.5"></path><path d="M788.95 244.74L788.95 244.74" stroke="rgba(161, 161, 161, 1)" stroke-width="1.5"></path><path d="M788.95 244.74L940.33 221.45" stroke="rgba(161, 161, 161, 1)" stroke-width="1.5"></path><path d="M788.95 244.74L836.25 412.08" stroke="rgba(161, 161, 161, 1)" stroke-width="1.5"></path><path d="M836.25 412.08L836.25 412.08" stroke="rgba(161, 161, 161, 1)" stroke-width="1.5"></path><path d="M836.25 412.08L953.52 394.73" stroke="rgba(161, 161, 161, 1)" stroke-width="1.5"></path><path d="M836.25 412.08L839.28 539.16" stroke="rgba(161, 161, 161, 1)" stroke-width="1.5"></path><path d="M836.25 412.08L680.66 397.22" stroke="rgba(161, 161, 161, 1)" stroke-width="1.5"></path><path d="M836.25 412.08L953.01 531.51" stroke="rgba(161, 161, 161, 1)" stroke-width="1.5"></path><path d="M839.28 539.16L839.28 539.16" stroke="rgba(161, 161, 161, 1)" stroke-width="1.5"></path><path d="M839.28 539.16L953.01 531.51" stroke="rgba(161, 161, 161, 1)" stroke-width="1.5"></path><path d="M839.28 539.16L817.66 671.71" stroke="rgba(161, 161, 161, 1)" stroke-width="1.5"></path><path d="M839.28 539.16L953.52 394.73" stroke="rgba(161, 161, 161, 1)" stroke-width="1.5"></path><path d="M817.66 671.71L817.66 671.71" stroke="rgba(161, 161, 161, 1)" stroke-width="1.5"></path><path d="M817.66 671.71L983.84 700.13" stroke="rgba(161, 161, 161, 1)" stroke-width="1.5"></path><path d="M817.66 671.71L953.01 531.51" stroke="rgba(161, 161, 161, 1)" stroke-width="1.5"></path><path d="M817.66 671.71L684.3 494.09" stroke="rgba(161, 161, 161, 1)" stroke-width="1.5"></path><path d="M817.66 671.71L836.25 412.08" stroke="rgba(161, 161, 161, 1)" stroke-width="1.5"></path><path d="M982.95 -79.25L982.95 -79.25" stroke="rgba(161, 161, 161, 1)" stroke-width="1.5"></path><path d="M982.95 -79.25L1004.3 100.56" stroke="rgba(161, 161, 161, 1)" stroke-width="1.5"></path><path d="M982.95 -79.25L1126.44 63.15" stroke="rgba(161, 161, 161, 1)" stroke-width="1.5"></path><path d="M1004.3 100.56L1004.3 100.56" stroke="rgba(161, 161, 161, 1)" stroke-width="1.5"></path><path d="M1004.3 100.56L1126.44 63.15" stroke="rgba(161, 161, 161, 1)" stroke-width="1.5"></path><path d="M1004.3 100.56L940.33 221.45" stroke="rgba(161, 161, 161, 1)" stroke-width="1.5"></path><path d="M1004.3 100.56L1095.83 232.63" stroke="rgba(161, 161, 161, 1)" stroke-width="1.5"></path><path d="M1004.3 100.56L788.95 244.74" stroke="rgba(161, 161, 161, 1)" stroke-width="1.5"></path><path d="M1004.3 100.56L1263.32 52.58" stroke="rgba(161, 161, 161, 1)" stroke-width="1.5"></path><path d="M940.33 221.45L940.33 221.45" stroke="rgba(161, 161, 161, 1)" stroke-width="1.5"></path><path d="M940.33 221.45L1095.83 232.63" stroke="rgba(161, 161, 161, 1)" stroke-width="1.5"></path><path d="M953.52 394.73L953.52 394.73" stroke="rgba(161, 161, 161, 1)" stroke-width="1.5"></path><path d="M953.52 394.73L953.01 531.51" stroke="rgba(161, 161, 161, 1)" stroke-width="1.5"></path><path d="M953.52 394.73L940.33 221.45" stroke="rgba(161, 161, 161, 1)" stroke-width="1.5"></path><path d="M953.52 394.73L1136.55 359.51" stroke="rgba(161, 161, 161, 1)" stroke-width="1.5"></path><path d="M953.52 394.73L1119.1 487.69" stroke="rgba(161, 161, 161, 1)" stroke-width="1.5"></path><path d="M953.01 531.51L953.01 531.51" stroke="rgba(161, 161, 161, 1)" stroke-width="1.5"></path><path d="M983.84 700.13L983.84 700.13" stroke="rgba(161, 161, 161, 1)" stroke-width="1.5"></path><path d="M983.84 700.13L953.01 531.51" stroke="rgba(161, 161, 161, 1)" stroke-width="1.5"></path><path d="M983.84 700.13L839.28 539.16" stroke="rgba(161, 161, 161, 1)" stroke-width="1.5"></path><path d="M1126.44 63.15L1126.44 63.15" stroke="rgba(161, 161, 161, 1)" stroke-width="1.5"></path><path d="M1126.44 63.15L1263.32 52.58" stroke="rgba(161, 161, 161, 1)" stroke-width="1.5"></path><path d="M1095.83 232.63L1095.83 232.63" stroke="rgba(161, 161, 161, 1)" stroke-width="1.5"></path><path d="M1095.83 232.63L1136.55 359.51" stroke="rgba(161, 161, 161, 1)" stroke-width="1.5"></path><path d="M1136.55 359.51L1136.55 359.51" stroke="rgba(161, 161, 161, 1)" stroke-width="1.5"></path><path d="M1136.55 359.51L1119.1 487.69" stroke="rgba(161, 161, 161, 1)" stroke-width="1.5"></path><path d="M1119.1 487.69L1119.1 487.69" stroke="rgba(161, 161, 161, 1)" stroke-width="1.5"></path><path d="M1119.1 487.69L1270.34 504.69" stroke="rgba(161, 161, 161, 1)" stroke-width="1.5"></path><path d="M1119.1 487.69L953.01 531.51" stroke="rgba(161, 161, 161, 1)" stroke-width="1.5"></path><path d="M1119.1 487.69L1311.62 390.62" stroke="rgba(161, 161, 161, 1)" stroke-width="1.5"></path><path d="M1119.1 487.69L1265.33 669.02" stroke="rgba(161, 161, 161, 1)" stroke-width="1.5"></path><path d="M1256.7 -70.86L1256.7 -70.86" stroke="rgba(161, 161, 161, 1)" stroke-width="1.5"></path><path d="M1256.7 -70.86L1263.32 52.58" stroke="rgba(161, 161, 161, 1)" stroke-width="1.5"></path><path d="M1256.7 -70.86L1425.9 -39.52" stroke="rgba(161, 161, 161, 1)" stroke-width="1.5"></path><path d="M1256.7 -70.86L1126.44 63.15" stroke="rgba(161, 161, 161, 1)" stroke-width="1.5"></path><path d="M1256.7 -70.86L1402 71.78" stroke="rgba(161, 161, 161, 1)" stroke-width="1.5"></path><path d="M1256.7 -70.86L982.95 -79.25" stroke="rgba(161, 161, 161, 1)" stroke-width="1.5"></path><path d="M1256.7 -70.86L1295.73 209.91" stroke="rgba(161, 161, 161, 1)" stroke-width="1.5"></path><path d="M1263.32 52.58L1263.32 52.58" stroke="rgba(161, 161, 161, 1)" stroke-width="1.5"></path><path d="M1263.32 52.58L1402 71.78" stroke="rgba(161, 161, 161, 1)" stroke-width="1.5"></path><path d="M1263.32 52.58L1295.73 209.91" stroke="rgba(161, 161, 161, 1)" stroke-width="1.5"></path><path d="M1263.32 52.58L1425.9 -39.52" stroke="rgba(161, 161, 161, 1)" stroke-width="1.5"></path><path d="M1295.73 209.91L1295.73 209.91" stroke="rgba(161, 161, 161, 1)" stroke-width="1.5"></path><path d="M1295.73 209.91L1402 71.78" stroke="rgba(161, 161, 161, 1)" stroke-width="1.5"></path><path d="M1295.73 209.91L1311.62 390.62" stroke="rgba(161, 161, 161, 1)" stroke-width="1.5"></path><path d="M1311.62 390.62L1311.62 390.62" stroke="rgba(161, 161, 161, 1)" stroke-width="1.5"></path><path d="M1311.62 390.62L1270.34 504.69" stroke="rgba(161, 161, 161, 1)" stroke-width="1.5"></path><path d="M1311.62 390.62L1450.28 405.76" stroke="rgba(161, 161, 161, 1)" stroke-width="1.5"></path><path d="M1311.62 390.62L1136.55 359.51" stroke="rgba(161, 161, 161, 1)" stroke-width="1.5"></path><path d="M1270.34 504.69L1270.34 504.69" stroke="rgba(161, 161, 161, 1)" stroke-width="1.5"></path><path d="M1270.34 504.69L1265.33 669.02" stroke="rgba(161, 161, 161, 1)" stroke-width="1.5"></path><path d="M1270.34 504.69L1136.55 359.51" stroke="rgba(161, 161, 161, 1)" stroke-width="1.5"></path><path d="M1270.34 504.69L1450.28 405.76" stroke="rgba(161, 161, 161, 1)" stroke-width="1.5"></path><path d="M1265.33 669.02L1265.33 669.02" stroke="rgba(161, 161, 161, 1)" stroke-width="1.5"></path><path d="M1265.33 669.02L1454.83 696.56" stroke="rgba(161, 161, 161, 1)" stroke-width="1.5"></path><path d="M1265.33 669.02L1311.62 390.62" stroke="rgba(161, 161, 161, 1)" stroke-width="1.5"></path><path d="M1265.33 669.02L983.84 700.13" stroke="rgba(161, 161, 161, 1)" stroke-width="1.5"></path><path d="M1265.33 669.02L1570.28 656.79" stroke="rgba(161, 161, 161, 1)" stroke-width="1.5"></path><path d="M1425.9 -39.52L1425.9 -39.52" stroke="rgba(161, 161, 161, 1)" stroke-width="1.5"></path><path d="M1425.9 -39.52L1402 71.78" stroke="rgba(161, 161, 161, 1)" stroke-width="1.5"></path><path d="M1425.9 -39.52L1584.44 -109.47" stroke="rgba(161, 161, 161, 1)" stroke-width="1.5"></path><path d="M1425.9 -39.52L1596.54 80.22" stroke="rgba(161, 161, 161, 1)" stroke-width="1.5"></path><path d="M1402 71.78L1402 71.78" stroke="rgba(161, 161, 161, 1)" stroke-width="1.5"></path><path d="M1402 71.78L1596.54 80.22" stroke="rgba(161, 161, 161, 1)" stroke-width="1.5"></path><path d="M1450.28 405.76L1450.28 405.76" stroke="rgba(161, 161, 161, 1)" stroke-width="1.5"></path><path d="M1450.28 405.76L1554.3 364.82" stroke="rgba(161, 161, 161, 1)" stroke-width="1.5"></path><path d="M1454.83 696.56L1454.83 696.56" stroke="rgba(161, 161, 161, 1)" stroke-width="1.5"></path><path d="M1454.83 696.56L1570.28 656.79" stroke="rgba(161, 161, 161, 1)" stroke-width="1.5"></path><path d="M1454.83 696.56L1585.52 557.51" stroke="rgba(161, 161, 161, 1)" stroke-width="1.5"></path><path d="M1584.44 -109.47L1584.44 -109.47" stroke="rgba(161, 161, 161, 1)" stroke-width="1.5"></path><path d="M1584.44 -109.47L1596.54 80.22" stroke="rgba(161, 161, 161, 1)" stroke-width="1.5"></path><path d="M1596.54 80.22L1596.54 80.22" stroke="rgba(161, 161, 161, 1)" stroke-width="1.5"></path><path d="M1596.54 80.22L1565.64 250.01" stroke="rgba(161, 161, 161, 1)" stroke-width="1.5"></path><path d="M1596.54 80.22L1554.3 364.82" stroke="rgba(161, 161, 161, 1)" stroke-width="1.5"></path><path d="M1596.54 80.22L1295.73 209.91" stroke="rgba(161, 161, 161, 1)" stroke-width="1.5"></path><path d="M1565.64 250.01L1565.64 250.01" stroke="rgba(161, 161, 161, 1)" stroke-width="1.5"></path><path d="M1565.64 250.01L1554.3 364.82" stroke="rgba(161, 161, 161, 1)" stroke-width="1.5"></path><path d="M1565.64 250.01L1450.28 405.76" stroke="rgba(161, 161, 161, 1)" stroke-width="1.5"></path><path d="M1565.64 250.01L1402 71.78" stroke="rgba(161, 161, 161, 1)" stroke-width="1.5"></path><path d="M1554.3 364.82L1554.3 364.82" stroke="rgba(161, 161, 161, 1)" stroke-width="1.5"></path><path d="M1554.3 364.82L1585.52 557.51" stroke="rgba(161, 161, 161, 1)" stroke-width="1.5"></path><path d="M1554.3 364.82L1311.62 390.62" stroke="rgba(161, 161, 161, 1)" stroke-width="1.5"></path><path d="M1554.3 364.82L1570.28 656.79" stroke="rgba(161, 161, 161, 1)" stroke-width="1.5"></path><path d="M1585.52 557.51L1585.52 557.51" stroke="rgba(161, 161, 161, 1)" stroke-width="1.5"></path><path d="M1585.52 557.51L1570.28 656.79" stroke="rgba(161, 161, 161, 1)" stroke-width="1.5"></path><path d="M1585.52 557.51L1450.28 405.76" stroke="rgba(161, 161, 161, 1)" stroke-width="1.5"></path><path d="M1585.52 557.51L1565.64 250.01" stroke="rgba(161, 161, 161, 1)" stroke-width="1.5"></path><path d="M1585.52 557.51L1270.34 504.69" stroke="rgba(161, 161, 161, 1)" stroke-width="1.5"></path><path d="M1570.28 656.79L1570.28 656.79" stroke="rgba(161, 161, 161, 1)" stroke-width="1.5"></path><path d="M1570.28 656.79L1450.28 405.76" stroke="rgba(161, 161, 161, 1)" stroke-width="1.5"></path><circle r="5" cx="-46.89" cy="360.4" fill="rgba(161, 161, 161, 1)"></circle><circle r="5" cx="-44.02" cy="552.1" fill="rgba(161, 161, 161, 1)"></circle><circle r="5" cx="-105.48" cy="704.87" fill="rgba(161, 161, 161, 1)"></circle><circle r="5" cx="91.61" cy="376.06" fill="rgba(161, 161, 161, 1)"></circle><circle r="5" cx="81.2" cy="557.5" fill="rgba(161, 161, 161, 1)"></circle><circle r="5" cx="107.16" cy="664.77" fill="rgba(161, 161, 161, 1)"></circle><circle r="5" cx="243.62" cy="409.12" fill="rgba(161, 161, 161, 1)"></circle><circle r="5" cx="223.6" cy="532.32" fill="rgba(161, 161, 161, 1)"></circle><circle r="5" cx="233.47" cy="669.04" fill="rgba(161, 161, 161, 1)"></circle><circle r="5" cx="349.28" cy="369.35" fill="rgba(161, 161, 161, 1)"></circle><circle r="5" cx="343.66" cy="532.81" fill="rgba(161, 161, 161, 1)"></circle><circle r="5" cx="347.66" cy="703.95" fill="rgba(161, 161, 161, 1)"></circle><circle r="5" cx="533.9" cy="358.78" fill="rgba(161, 161, 161, 1)"></circle><circle r="5" cx="541.22" cy="530.7" fill="rgba(161, 161, 161, 1)"></circle><circle r="5" cx="497.54" cy="648.7" fill="rgba(161, 161, 161, 1)"></circle><circle r="5" cx="688.99" cy="252.84" fill="rgba(161, 161, 161, 1)"></circle><circle r="5" cx="680.66" cy="397.22" fill="rgba(161, 161, 161, 1)"></circle><circle r="5" cx="684.3" cy="494.09" fill="rgba(161, 161, 161, 1)"></circle><circle r="5" cx="648.53" cy="672.7" fill="rgba(161, 161, 161, 1)"></circle><circle r="5" cx="788.95" cy="244.74" fill="rgba(161, 161, 161, 1)"></circle><circle r="5" cx="836.25" cy="412.08" fill="rgba(161, 161, 161, 1)"></circle><circle r="5" cx="839.28" cy="539.16" fill="rgba(161, 161, 161, 1)"></circle><circle r="5" cx="817.66" cy="671.71" fill="rgba(161, 161, 161, 1)"></circle><circle r="5" cx="982.95" cy="-79.25" fill="rgba(161, 161, 161, 1)"></circle><circle r="5" cx="1004.3" cy="100.56" fill="rgba(161, 161, 161, 1)"></circle><circle r="5" cx="940.33" cy="221.45" fill="rgba(161, 161, 161, 1)"></circle><circle r="5" cx="953.52" cy="394.73" fill="rgba(161, 161, 161, 1)"></circle><circle r="5" cx="953.01" cy="531.51" fill="rgba(161, 161, 161, 1)"></circle><circle r="5" cx="983.84" cy="700.13" fill="rgba(161, 161, 161, 1)"></circle><circle r="5" cx="1126.44" cy="63.15" fill="rgba(161, 161, 161, 1)"></circle><circle r="5" cx="1095.83" cy="232.63" fill="rgba(161, 161, 161, 1)"></circle><circle r="5" cx="1136.55" cy="359.51" fill="rgba(161, 161, 161, 1)"></circle><circle r="5" cx="1119.1" cy="487.69" fill="rgba(161, 161, 161, 1)"></circle><circle r="5" cx="1256.7" cy="-70.86" fill="rgba(161, 161, 161, 1)"></circle><circle r="5" cx="1263.32" cy="52.58" fill="rgba(161, 161, 161, 1)"></circle><circle r="5" cx="1295.73" cy="209.91" fill="rgba(161, 161, 161, 1)"></circle><circle r="5" cx="1311.62" cy="390.62" fill="rgba(161, 161, 161, 1)"></circle><circle r="5" cx="1270.34" cy="504.69" fill="rgba(161, 161, 161, 1)"></circle><circle r="5" cx="1265.33" cy="669.02" fill="rgba(161, 161, 161, 1)"></circle><circle r="5" cx="1425.9" cy="-39.52" fill="rgba(161, 161, 161, 1)"></circle><circle r="5" cx="1402" cy="71.78" fill="rgba(161, 161, 161, 1)"></circle><circle r="5" cx="1450.28" cy="405.76" fill="rgba(161, 161, 161, 1)"></circle><circle r="5" cx="1454.83" cy="696.56" fill="rgba(161, 161, 161, 1)"></circle><circle r="5" cx="1584.44" cy="-109.47" fill="rgba(161, 161, 161, 1)"></circle><circle r="5" cx="1596.54" cy="80.22" fill="rgba(161, 161, 161, 1)"></circle><circle r="5" cx="1565.64" cy="250.01" fill="rgba(161, 161, 161, 1)"></circle><circle r="5" cx="1554.3" cy="364.82" fill="rgba(161, 161, 161, 1)"></circle><circle r="5" cx="1585.52" cy="557.51" fill="rgba(161, 161, 161, 1)"></circle><circle r="5" cx="1570.28" cy="656.79" fill="rgba(161, 161, 161, 1)"></circle><path d="M1155.74 204.06L1155.74 204.06" stroke="hsl(0, 0%, 100%)" stroke-width="1.5"></path><path d="M1155.74 204.06L1134.11 111.3" stroke="hsl(0, 0%, 100%)" stroke-width="1.5"></path><path d="M1155.74 204.06L1271.57 210.83" stroke="hsl(0, 0%, 100%)" stroke-width="1.5"></path><path d="M1155.74 204.06L1264.8 99.27" stroke="hsl(0, 0%, 100%)" stroke-width="1.5"></path><path d="M1155.74 204.06L1120.6 363.78" stroke="hsl(0, 0%, 100%)" stroke-width="1.5"></path><path d="M1155.74 204.06L1264.48 397.68" stroke="hsl(0, 0%, 100%)" stroke-width="1.5"></path><path d="M1264.8 99.27L1264.8 99.27" stroke="hsl(0, 0%, 100%)" stroke-width="1.5"></path><path d="M1264.8 99.27L1271.57 210.83" stroke="hsl(0, 0%, 100%)" stroke-width="1.5"></path><path d="M1264.8 99.27L1134.11 111.3" stroke="hsl(0, 0%, 100%)" stroke-width="1.5"></path><path d="M1253.75 707.06L1253.75 707.06" stroke="hsl(0, 0%, 100%)" stroke-width="1.5"></path><path d="M1253.75 707.06L1280.93 549.79" stroke="hsl(0, 0%, 100%)" stroke-width="1.5"></path><path d="M1432.62 103.15L1432.62 103.15" stroke="hsl(0, 0%, 100%)" stroke-width="1.5"></path><path d="M1432.62 103.15L1548.75 107.5" stroke="hsl(0, 0%, 100%)" stroke-width="1.5"></path><path d="M1432.62 103.15L1408.41 223.97" stroke="hsl(0, 0%, 100%)" stroke-width="1.5"></path><path d="M1432.62 103.15L1264.8 99.27" stroke="hsl(0, 0%, 100%)" stroke-width="1.5"></path><path d="M1545.24 400.96L1545.24 400.96" stroke="hsl(0, 0%, 100%)" stroke-width="1.5"></path><path d="M1545.24 400.96L1432.36 412.14" stroke="hsl(0, 0%, 100%)" stroke-width="1.5"></path><path d="M1545.24 400.96L1607.34 521.87" stroke="hsl(0, 0%, 100%)" stroke-width="1.5"></path><path d="M1545.24 400.96L1434.64 500.1" stroke="hsl(0, 0%, 100%)" stroke-width="1.5"></path><path d="M-38.54 528.46L-38.54 528.46" stroke="hsl(0, 0%, 100%)" stroke-width="1.5"></path><path d="M-38.54 528.46L81.23 536.18" stroke="hsl(0, 0%, 100%)" stroke-width="1.5"></path><path d="M-38.54 528.46L-97.54 675.88" stroke="hsl(0, 0%, 100%)" stroke-width="1.5"></path><path d="M-38.54 528.46L39.32 668.04" stroke="hsl(0, 0%, 100%)" stroke-width="1.5"></path><path d="M-97.54 675.88L-97.54 675.88" stroke="hsl(0, 0%, 100%)" stroke-width="1.5"></path><path d="M-97.54 675.88L39.32 668.04" stroke="hsl(0, 0%, 100%)" stroke-width="1.5"></path><path d="M-97.54 675.88L81.23 536.18" stroke="hsl(0, 0%, 100%)" stroke-width="1.5"></path><path d="M-97.54 675.88L257.82 677.26" stroke="hsl(0, 0%, 100%)" stroke-width="1.5"></path><path d="M-97.54 675.88L247.19 524.39" stroke="hsl(0, 0%, 100%)" stroke-width="1.5"></path><path d="M81.23 536.18L81.23 536.18" stroke="hsl(0, 0%, 100%)" stroke-width="1.5"></path><path d="M81.23 536.18L39.32 668.04" stroke="hsl(0, 0%, 100%)" stroke-width="1.5"></path><path d="M81.23 536.18L247.19 524.39" stroke="hsl(0, 0%, 100%)" stroke-width="1.5"></path><path d="M81.23 536.18L257.82 677.26" stroke="hsl(0, 0%, 100%)" stroke-width="1.5"></path><path d="M39.32 668.04L39.32 668.04" stroke="hsl(0, 0%, 100%)" stroke-width="1.5"></path><path d="M39.32 668.04L257.82 677.26" stroke="hsl(0, 0%, 100%)" stroke-width="1.5"></path><path d="M247.19 524.39L247.19 524.39" stroke="hsl(0, 0%, 100%)" stroke-width="1.5"></path><path d="M247.19 524.39L390.11 541.29" stroke="hsl(0, 0%, 100%)" stroke-width="1.5"></path><path d="M247.19 524.39L257.82 677.26" stroke="hsl(0, 0%, 100%)" stroke-width="1.5"></path><path d="M247.19 524.39L353.6 709.64" stroke="hsl(0, 0%, 100%)" stroke-width="1.5"></path><path d="M257.82 677.26L257.82 677.26" stroke="hsl(0, 0%, 100%)" stroke-width="1.5"></path><path d="M257.82 677.26L353.6 709.64" stroke="hsl(0, 0%, 100%)" stroke-width="1.5"></path><path d="M257.82 677.26L390.11 541.29" stroke="hsl(0, 0%, 100%)" stroke-width="1.5"></path><path d="M390.11 541.29L390.11 541.29" stroke="hsl(0, 0%, 100%)" stroke-width="1.5"></path><path d="M390.11 541.29L549.82 551.29" stroke="hsl(0, 0%, 100%)" stroke-width="1.5"></path><path d="M390.11 541.29L353.6 709.64" stroke="hsl(0, 0%, 100%)" stroke-width="1.5"></path><path d="M353.6 709.64L353.6 709.64" stroke="hsl(0, 0%, 100%)" stroke-width="1.5"></path><path d="M353.6 709.64L527.43 679.06" stroke="hsl(0, 0%, 100%)" stroke-width="1.5"></path><path d="M353.6 709.64L549.82 551.29" stroke="hsl(0, 0%, 100%)" stroke-width="1.5"></path><path d="M549.82 551.29L549.82 551.29" stroke="hsl(0, 0%, 100%)" stroke-width="1.5"></path><path d="M549.82 551.29L647 555.51" stroke="hsl(0, 0%, 100%)" stroke-width="1.5"></path><path d="M549.82 551.29L527.43 679.06" stroke="hsl(0, 0%, 100%)" stroke-width="1.5"></path><path d="M527.43 679.06L527.43 679.06" stroke="hsl(0, 0%, 100%)" stroke-width="1.5"></path><path d="M527.43 679.06L640.72 692.71" stroke="hsl(0, 0%, 100%)" stroke-width="1.5"></path><path d="M527.43 679.06L647 555.51" stroke="hsl(0, 0%, 100%)" stroke-width="1.5"></path><path d="M699.6 404.94L699.6 404.94" stroke="hsl(0, 0%, 100%)" stroke-width="1.5"></path><path d="M699.6 404.94L823.76 391.18" stroke="hsl(0, 0%, 100%)" stroke-width="1.5"></path><path d="M647 555.51L647 555.51" stroke="hsl(0, 0%, 100%)" stroke-width="1.5"></path><path d="M647 555.51L640.72 692.71" stroke="hsl(0, 0%, 100%)" stroke-width="1.5"></path><path d="M647 555.51L699.6 404.94" stroke="hsl(0, 0%, 100%)" stroke-width="1.5"></path><path d="M640.72 692.71L640.72 692.71" stroke="hsl(0, 0%, 100%)" stroke-width="1.5"></path><path d="M823.76 391.18L823.76 391.18" stroke="hsl(0, 0%, 100%)" stroke-width="1.5"></path><path d="M823.76 391.18L815.82 531.71" stroke="hsl(0, 0%, 100%)" stroke-width="1.5"></path><path d="M823.76 391.18L967.03 348.64" stroke="hsl(0, 0%, 100%)" stroke-width="1.5"></path><path d="M815.82 531.71L815.82 531.71" stroke="hsl(0, 0%, 100%)" stroke-width="1.5"></path><path d="M815.82 531.71L850.16 658.62" stroke="hsl(0, 0%, 100%)" stroke-width="1.5"></path><path d="M815.82 531.71L966.07 551.69" stroke="hsl(0, 0%, 100%)" stroke-width="1.5"></path><path d="M815.82 531.71L647 555.51" stroke="hsl(0, 0%, 100%)" stroke-width="1.5"></path><path d="M815.82 531.71L699.6 404.94" stroke="hsl(0, 0%, 100%)" stroke-width="1.5"></path><path d="M815.82 531.71L989.62 659.82" stroke="hsl(0, 0%, 100%)" stroke-width="1.5"></path><path d="M850.16 658.62L850.16 658.62" stroke="hsl(0, 0%, 100%)" stroke-width="1.5"></path><path d="M850.16 658.62L989.62 659.82" stroke="hsl(0, 0%, 100%)" stroke-width="1.5"></path><path d="M850.16 658.62L966.07 551.69" stroke="hsl(0, 0%, 100%)" stroke-width="1.5"></path><path d="M850.16 658.62L640.72 692.71" stroke="hsl(0, 0%, 100%)" stroke-width="1.5"></path><path d="M967.03 348.64L967.03 348.64" stroke="hsl(0, 0%, 100%)" stroke-width="1.5"></path><path d="M967.03 348.64L1120.6 363.78" stroke="hsl(0, 0%, 100%)" stroke-width="1.5"></path><path d="M967.03 348.64L966.07 551.69" stroke="hsl(0, 0%, 100%)" stroke-width="1.5"></path><path d="M967.03 348.64L1140.83 499.86" stroke="hsl(0, 0%, 100%)" stroke-width="1.5"></path><path d="M966.07 551.69L966.07 551.69" stroke="hsl(0, 0%, 100%)" stroke-width="1.5"></path><path d="M966.07 551.69L989.62 659.82" stroke="hsl(0, 0%, 100%)" stroke-width="1.5"></path><path d="M966.07 551.69L1140.83 499.86" stroke="hsl(0, 0%, 100%)" stroke-width="1.5"></path><path d="M966.07 551.69L823.76 391.18" stroke="hsl(0, 0%, 100%)" stroke-width="1.5"></path><path d="M989.62 659.82L989.62 659.82" stroke="hsl(0, 0%, 100%)" stroke-width="1.5"></path><path d="M1134.11 111.3L1134.11 111.3" stroke="hsl(0, 0%, 100%)" stroke-width="1.5"></path><path d="M1120.6 363.78L1120.6 363.78" stroke="hsl(0, 0%, 100%)" stroke-width="1.5"></path><path d="M1120.6 363.78L1140.83 499.86" stroke="hsl(0, 0%, 100%)" stroke-width="1.5"></path><path d="M1120.6 363.78L1264.48 397.68" stroke="hsl(0, 0%, 100%)" stroke-width="1.5"></path><path d="M1140.83 499.86L1140.83 499.86" stroke="hsl(0, 0%, 100%)" stroke-width="1.5"></path><path d="M1140.83 499.86L1280.93 549.79" stroke="hsl(0, 0%, 100%)" stroke-width="1.5"></path><path d="M1140.83 499.86L1264.48 397.68" stroke="hsl(0, 0%, 100%)" stroke-width="1.5"></path><path d="M1140.83 499.86L989.62 659.82" stroke="hsl(0, 0%, 100%)" stroke-width="1.5"></path><path d="M1247.52 -105.07L1247.52 -105.07" stroke="hsl(0, 0%, 100%)" stroke-width="1.5"></path><path d="M1247.52 -105.07L1400.07 -99.06" stroke="hsl(0, 0%, 100%)" stroke-width="1.5"></path><path d="M1247.52 -105.07L1264.8 99.27" stroke="hsl(0, 0%, 100%)" stroke-width="1.5"></path><path d="M1247.52 -105.07L1134.11 111.3" stroke="hsl(0, 0%, 100%)" stroke-width="1.5"></path><path d="M1247.52 -105.07L1432.62 103.15" stroke="hsl(0, 0%, 100%)" stroke-width="1.5"></path><path d="M1247.52 -105.07L1271.57 210.83" stroke="hsl(0, 0%, 100%)" stroke-width="1.5"></path><path d="M1247.52 -105.07L1155.74 204.06" stroke="hsl(0, 0%, 100%)" stroke-width="1.5"></path><path d="M1271.57 210.83L1271.57 210.83" stroke="hsl(0, 0%, 100%)" stroke-width="1.5"></path><path d="M1271.57 210.83L1408.41 223.97" stroke="hsl(0, 0%, 100%)" stroke-width="1.5"></path><path d="M1271.57 210.83L1134.11 111.3" stroke="hsl(0, 0%, 100%)" stroke-width="1.5"></path><path d="M1271.57 210.83L1264.48 397.68" stroke="hsl(0, 0%, 100%)" stroke-width="1.5"></path><path d="M1271.57 210.83L1432.62 103.15" stroke="hsl(0, 0%, 100%)" stroke-width="1.5"></path><path d="M1264.48 397.68L1264.48 397.68" stroke="hsl(0, 0%, 100%)" stroke-width="1.5"></path><path d="M1264.48 397.68L1280.93 549.79" stroke="hsl(0, 0%, 100%)" stroke-width="1.5"></path><path d="M1264.48 397.68L1432.36 412.14" stroke="hsl(0, 0%, 100%)" stroke-width="1.5"></path><path d="M1280.93 549.79L1280.93 549.79" stroke="hsl(0, 0%, 100%)" stroke-width="1.5"></path><path d="M1280.93 549.79L1434.64 500.1" stroke="hsl(0, 0%, 100%)" stroke-width="1.5"></path><path d="M1400.07 -99.06L1400.07 -99.06" stroke="hsl(0, 0%, 100%)" stroke-width="1.5"></path><path d="M1400.07 -99.06L1583.05 -66.08" stroke="hsl(0, 0%, 100%)" stroke-width="1.5"></path><path d="M1400.07 -99.06L1432.62 103.15" stroke="hsl(0, 0%, 100%)" stroke-width="1.5"></path><path d="M1400.07 -99.06L1264.8 99.27" stroke="hsl(0, 0%, 100%)" stroke-width="1.5"></path><path d="M1400.07 -99.06L1548.75 107.5" stroke="hsl(0, 0%, 100%)" stroke-width="1.5"></path><path d="M1400.07 -99.06L1408.41 223.97" stroke="hsl(0, 0%, 100%)" stroke-width="1.5"></path><path d="M1408.41 223.97L1408.41 223.97" stroke="hsl(0, 0%, 100%)" stroke-width="1.5"></path><path d="M1408.41 223.97L1578.73 209.33" stroke="hsl(0, 0%, 100%)" stroke-width="1.5"></path><path d="M1408.41 223.97L1548.75 107.5" stroke="hsl(0, 0%, 100%)" stroke-width="1.5"></path><path d="M1408.41 223.97L1432.36 412.14" stroke="hsl(0, 0%, 100%)" stroke-width="1.5"></path><path d="M1408.41 223.97L1264.8 99.27" stroke="hsl(0, 0%, 100%)" stroke-width="1.5"></path><path d="M1432.36 412.14L1432.36 412.14" stroke="hsl(0, 0%, 100%)" stroke-width="1.5"></path><path d="M1432.36 412.14L1434.64 500.1" stroke="hsl(0, 0%, 100%)" stroke-width="1.5"></path><path d="M1434.64 500.1L1434.64 500.1" stroke="hsl(0, 0%, 100%)" stroke-width="1.5"></path><path d="M1434.64 500.1L1607.34 521.87" stroke="hsl(0, 0%, 100%)" stroke-width="1.5"></path><path d="M1451.17 688.96L1451.17 688.96" stroke="hsl(0, 0%, 100%)" stroke-width="1.5"></path><path d="M1451.17 688.96L1584.21 710.93" stroke="hsl(0, 0%, 100%)" stroke-width="1.5"></path><path d="M1451.17 688.96L1434.64 500.1" stroke="hsl(0, 0%, 100%)" stroke-width="1.5"></path><path d="M1451.17 688.96L1253.75 707.06" stroke="hsl(0, 0%, 100%)" stroke-width="1.5"></path><path d="M1583.05 -66.08L1583.05 -66.08" stroke="hsl(0, 0%, 100%)" stroke-width="1.5"></path><path d="M1583.05 -66.08L1548.75 107.5" stroke="hsl(0, 0%, 100%)" stroke-width="1.5"></path><path d="M1583.05 -66.08L1432.62 103.15" stroke="hsl(0, 0%, 100%)" stroke-width="1.5"></path><path d="M1548.75 107.5L1548.75 107.5" stroke="hsl(0, 0%, 100%)" stroke-width="1.5"></path><path d="M1548.75 107.5L1578.73 209.33" stroke="hsl(0, 0%, 100%)" stroke-width="1.5"></path><path d="M1578.73 209.33L1578.73 209.33" stroke="hsl(0, 0%, 100%)" stroke-width="1.5"></path><path d="M1578.73 209.33L1432.62 103.15" stroke="hsl(0, 0%, 100%)" stroke-width="1.5"></path><path d="M1578.73 209.33L1545.24 400.96" stroke="hsl(0, 0%, 100%)" stroke-width="1.5"></path><path d="M1578.73 209.33L1432.36 412.14" stroke="hsl(0, 0%, 100%)" stroke-width="1.5"></path><path d="M1578.73 209.33L1583.05 -66.08" stroke="hsl(0, 0%, 100%)" stroke-width="1.5"></path><path d="M1607.34 521.87L1607.34 521.87" stroke="hsl(0, 0%, 100%)" stroke-width="1.5"></path><path d="M1584.21 710.93L1584.21 710.93" stroke="hsl(0, 0%, 100%)" stroke-width="1.5"></path><path d="M1584.21 710.93L1607.34 521.87" stroke="hsl(0, 0%, 100%)" stroke-width="1.5"></path><path d="M1584.21 710.93L1434.64 500.1" stroke="hsl(0, 0%, 100%)" stroke-width="1.5"></path><path d="M1584.21 710.93L1545.24 400.96" stroke="hsl(0, 0%, 100%)" stroke-width="1.5"></path><circle r="25" cx="1155.74" cy="204.06" fill="url(#SvgjsRadialGradient1035)"></circle><circle r="25" cx="1264.8" cy="99.27" fill="url(#SvgjsRadialGradient1035)"></circle><circle r="25" cx="1253.75" cy="707.06" fill="url(#SvgjsRadialGradient1035)"></circle><circle r="25" cx="1432.62" cy="103.15" fill="url(#SvgjsRadialGradient1035)"></circle><circle r="25" cx="1545.24" cy="400.96" fill="url(#SvgjsRadialGradient1035)"></circle><circle r="5" cx="-38.54" cy="528.46" fill="#ffffff"></circle><circle r="5" cx="-97.54" cy="675.88" fill="#ffffff"></circle><circle r="5" cx="81.23" cy="536.18" fill="#ffffff"></circle><circle r="5" cx="39.32" cy="668.04" fill="#ffffff"></circle><circle r="5" cx="247.19" cy="524.39" fill="#ffffff"></circle><circle r="5" cx="257.82" cy="677.26" fill="#ffffff"></circle><circle r="5" cx="390.11" cy="541.29" fill="#ffffff"></circle><circle r="5" cx="353.6" cy="709.64" fill="#ffffff"></circle><circle r="5" cx="549.82" cy="551.29" fill="#ffffff"></circle><circle r="5" cx="527.43" cy="679.06" fill="#ffffff"></circle><circle r="5" cx="699.6" cy="404.94" fill="#ffffff"></circle><circle r="5" cx="647" cy="555.51" fill="#ffffff"></circle><circle r="5" cx="640.72" cy="692.71" fill="#ffffff"></circle><circle r="5" cx="823.76" cy="391.18" fill="#ffffff"></circle><circle r="5" cx="815.82" cy="531.71" fill="#ffffff"></circle><circle r="5" cx="850.16" cy="658.62" fill="#ffffff"></circle><circle r="5" cx="967.03" cy="348.64" fill="#ffffff"></circle><circle r="5" cx="966.07" cy="551.69" fill="#ffffff"></circle><circle r="5" cx="989.62" cy="659.82" fill="#ffffff"></circle><circle r="5" cx="1134.11" cy="111.3" fill="#ffffff"></circle><circle r="5" cx="1120.6" cy="363.78" fill="#ffffff"></circle><circle r="5" cx="1140.83" cy="499.86" fill="#ffffff"></circle><circle r="5" cx="1247.52" cy="-105.07" fill="#ffffff"></circle><circle r="5" cx="1271.57" cy="210.83" fill="#ffffff"></circle><circle r="5" cx="1264.48" cy="397.68" fill="#ffffff"></circle><circle r="5" cx="1280.93" cy="549.79" fill="#ffffff"></circle><circle r="5" cx="1400.07" cy="-99.06" fill="#ffffff"></circle><circle r="5" cx="1408.41" cy="223.97" fill="#ffffff"></circle><circle r="5" cx="1432.36" cy="412.14" fill="#ffffff"></circle><circle r="5" cx="1434.64" cy="500.1" fill="#ffffff"></circle><circle r="5" cx="1451.17" cy="688.96" fill="#ffffff"></circle><circle r="5" cx="1583.05" cy="-66.08" fill="#ffffff"></circle><circle r="5" cx="1548.75" cy="107.5" fill="#ffffff"></circle><circle r="5" cx="1578.73" cy="209.33" fill="#ffffff"></circle><circle r="5" cx="1607.34" cy="521.87" fill="#ffffff"></circle><circle r="5" cx="1584.21" cy="710.93" fill="#ffffff"></circle></g><defs><mask id="SvgjsMask1034"><rect width="1440" height="560" fill="#ffffff"></rect></mask><radialGradient id="SvgjsRadialGradient1035"><stop stop-color="#ffffff" offset="0.1"></stop><stop stop-color="rgba(255, 255, 255, 1)" offset="0.2"></stop><stop stop-color="rgba(255, 255, 255, 0)" offset="1"></stop></radialGradient></defs></svg>