<?xml version="1.0" encoding="UTF-8"?>
<svg xmlns="http://www.w3.org/2000/svg" viewBox="0 0 50 50">
    <path d="M 21.5 2.09375 L 25.1875 5 L 31 2.8125 L 21.5 2.09375 z M 18.8125 2.5 L 10.8125 6.09375 L 22.40625 5.3125 L 18.8125 2.5 z M 33 4.3125 L 27.6875 6.1875 L 36.90625 10.1875 L 33 4.3125 z M 35.59375 4.59375 L 40 11.1875 L 42.90625 9.6875 L 35.59375 4.59375 z M 22.59375 7.3125 L 10.5 8.09375 L 16.59375 14.09375 L 22.59375 7.3125 z M 26.5 7.90625 L 29.6875 19.09375 L 37.6875 12.6875 L 26.5 7.90625 z M 24.5 8.1875 L 18.3125 15.1875 L 27.59375 19.09375 L 24.5 8.1875 z M 7.09375 9.3125 L 2.5 17.8125 L 6.1875 23.09375 L 7.09375 9.3125 z M 9.09375 9.5 L 8.1875 23.1875 L 15.1875 15.59375 L 9.09375 9.5 z M 44.1875 11.3125 L 40.8125 13 L 43.40625 22.59375 L 47.6875 20.90625 L 44.1875 11.3125 z M 39.09375 14.1875 L 31.40625 20.3125 L 41.40625 22.59375 L 39.09375 14.1875 z M 17.8125 17.09375 L 18.8125 29.8125 L 27.40625 21.1875 L 17.8125 17.09375 z M 15.8125 17.90625 L 8.59375 25.6875 L 16.90625 30.1875 L 15.8125 17.90625 z M 2.09375 20.6875 L 2.90625 32.40625 L 5.8125 26.09375 L 2.09375 20.6875 z M 30.59375 22.1875 L 33.8125 34.3125 L 41.09375 24.59375 L 30.59375 22.1875 z M 28.6875 22.8125 L 19.90625 31.5 L 31.90625 35 L 28.6875 22.8125 z M 47.90625 23 L 44 24.59375 L 46.3125 33.09375 L 47.90625 23 z M 42.3125 26.1875 L 35.5 35.3125 L 44.59375 34.59375 L 42.3125 26.1875 z M 8.59375 28 L 10.90625 35.90625 L 16.09375 32.09375 L 8.59375 28 z M 6.8125 28.8125 L 4.40625 33.90625 L 8.8125 35.8125 L 6.8125 28.8125 z M 17.6875 33.5 L 12.40625 37.3125 L 22.59375 41.6875 L 17.6875 33.5 z M 20.1875 33.6875 L 25.1875 42.3125 L 31.3125 36.90625 L 20.1875 33.6875 z M 4.59375 36.1875 L 11.6875 44 L 9.59375 38.3125 L 4.59375 36.1875 z M 45.09375 36.5 L 35.8125 37.3125 L 41.3125 42 L 45.09375 36.5 z M 33.40625 37.8125 L 27.90625 42.59375 L 38.1875 41.90625 L 33.40625 37.8125 z M 12.09375 39.40625 L 14.09375 44.8125 L 21.59375 43.40625 L 12.09375 39.40625 z M 37.90625 44 L 26.90625 44.6875 L 29.09375 47.59375 L 37.90625 44 z M 24.59375 44.90625 L 16.5 46.40625 L 26.8125 47.8125 L 24.59375 44.90625 z"/>
</svg>